<svg xmlns="http://www.w3.org/2000/svg" width="1600" height="900" viewBox="0 0 1600 900" role="img" aria-labelledby="title desc">
  <title id="title">Personal Development Workspace learning connection</title>
  <desc id="desc">Learning view with recommended courses and a Frappe LMS API connection status.</desc>
  <defs><linearGradient id="bg" x1="0" y1="0" x2="1" y2="1"><stop stop-color="#f3f1ff"/><stop offset="1" stop-color="#eef8f7"/></linearGradient><filter id="shadow" x="-20%" y="-20%" width="140%" height="140%"><feDropShadow dx="0" dy="10" stdDeviation="14" flood-color="#2f2a5c" flood-opacity=".12"/></filter></defs>
  <rect width="1600" height="900" rx="24" fill="url(#bg)"/><rect width="260" height="900" rx="24" fill="#202343"/><text x="48" y="62" fill="#fff" font-family="Arial, sans-serif" font-size="24" font-weight="700">PD Workspace</text>
  <text x="54" y="139" fill="#aeb4d5" font-family="Arial, sans-serif" font-size="17">Home</text><text x="54" y="199" fill="#aeb4d5" font-family="Arial, sans-serif" font-size="17">People</text><text x="54" y="259" fill="#aeb4d5" font-family="Arial, sans-serif" font-size="17">Skill profiles</text><rect x="22" y="282" width="216" height="50" rx="12" fill="#3b3b78"/><circle cx="32" cy="307" r="5" fill="#65d5c4"/><text x="54" y="315" fill="#fff" font-family="Arial, sans-serif" font-size="17" font-weight="600">Learning</text><text x="54" y="375" fill="#aeb4d5" font-family="Arial, sans-serif" font-size="17">Reports</text><text x="54" y="435" fill="#aeb4d5" font-family="Arial, sans-serif" font-size="17">Settings</text><line x1="32" y1="790" x2="228" y2="790" stroke="#41456b"/><text x="54" y="833" fill="#aeb4d5" font-family="Arial, sans-serif" font-size="15">Signed in as Alex Morgan</text>
  <text x="320" y="80" fill="#202343" font-family="Arial, sans-serif" font-size="32" font-weight="700">Learning connected to Frappe LMS</text><text x="320" y="113" fill="#737894" font-family="Arial, sans-serif" font-size="17">Relevant learning stays next to the employee's development context.</text>
  <rect x="320" y="152" width="1220" height="92" rx="18" fill="#fff" filter="url(#shadow)"/><circle cx="378" cy="198" r="24" fill="#e8faf6"/><path d="M367 198l8 8 15-17" fill="none" stroke="#15766d" stroke-width="4" stroke-linecap="round" stroke-linejoin="round"/><text x="422" y="190" fill="#202343" font-family="Arial, sans-serif" font-size="19" font-weight="700">API connection active</text><text x="422" y="218" fill="#737894" font-family="Arial, sans-serif" font-size="15">Frappe LMS learning records are available to the workspace</text><text x="1300" y="204" fill="#15766d" font-family="Arial, sans-serif" font-size="15" font-weight="700">Last sync · 09:42</text>
  <rect x="320" y="278" width="790" height="542" rx="18" fill="#fff" filter="url(#shadow)"/><text x="352" y="326" fill="#202343" font-family="Arial, sans-serif" font-size="22" font-weight="700">Recommended learning</text><text x="352" y="355" fill="#737894" font-family="Arial, sans-serif" font-size="15">Based on Alex Morgan's Product Designer profile</text>
  <g><rect x="352" y="388" width="726" height="110" rx="14" fill="#f8f8fc"/><rect x="375" y="411" width="64" height="64" rx="12" fill="#dcdcff"/><path d="M395 452h24M395 440h24M395 428h14" stroke="#5e62c8" stroke-width="4" stroke-linecap="round"/><text x="466" y="429" fill="#202343" font-family="Arial, sans-serif" font-size="18" font-weight="700">Product discovery fundamentals</text><text x="466" y="455" fill="#737894" font-family="Arial, sans-serif" font-size="14">Course · 6 lessons · Frappe LMS</text><rect x="466" y="473" width="385" height="8" rx="4" fill="#e3e5ef"/><rect x="466" y="473" width="154" height="8" rx="4" fill="#6874d8"/><text x="870" y="480" fill="#737894" font-family="Arial, sans-serif" font-size="14">40%</text></g>
  <g><rect x="352" y="520" width="726" height="110" rx="14" fill="#f8f8fc"/><rect x="375" y="543" width="64" height="64" rx="12" fill="#d8f3ee"/><path d="M395 583h25M395 571h25M395 559h14" stroke="#278e82" stroke-width="4" stroke-linecap="round"/><text x="466" y="561" fill="#202343" font-family="Arial, sans-serif" font-size="18" font-weight="700">Accessible interface design</text><text x="466" y="587" fill="#737894" font-family="Arial, sans-serif" font-size="14">Course · 8 lessons · Frappe LMS</text><rect x="466" y="605" width="385" height="8" rx="4" fill="#e3e5ef"/><rect x="466" y="605" width="289" height="8" rx="4" fill="#51b9aa"/><text x="870" y="612" fill="#737894" font-family="Arial, sans-serif" font-size="14">75%</text></g>
  <g><rect x="352" y="652" width="726" height="110" rx="14" fill="#f8f8fc"/><rect x="375" y="675" width="64" height="64" rx="12" fill="#fff0d6"/><path d="M395 715h25M395 703h25M395 691h14" stroke="#b67c22" stroke-width="4" stroke-linecap="round"/><text x="466" y="693" fill="#202343" font-family="Arial, sans-serif" font-size="18" font-weight="700">Facilitation skills</text><text x="466" y="719" fill="#737894" font-family="Arial, sans-serif" font-size="14">Course · 4 lessons · Frappe LMS</text><rect x="466" y="737" width="385" height="8" rx="4" fill="#e3e5ef"/><text x="870" y="744" fill="#737894" font-family="Arial, sans-serif" font-size="14">Not started</text></g>
  <rect x="1150" y="278" width="390" height="542" rx="18" fill="#fff" filter="url(#shadow)"/><text x="1182" y="326" fill="#202343" font-family="Arial, sans-serif" font-size="22" font-weight="700">Learning record</text><text x="1182" y="355" fill="#737894" font-family="Arial, sans-serif" font-size="15">Synced from the learning system</text><line x1="1182" y1="384" x2="1508" y2="384" stroke="#e5e7ef"/><text x="1182" y="430" fill="#737894" font-family="Arial, sans-serif" font-size="14">LEARNER</text><text x="1182" y="458" fill="#202343" font-family="Arial, sans-serif" font-size="17" font-weight="600">Alex Morgan</text><text x="1182" y="510" fill="#737894" font-family="Arial, sans-serif" font-size="14">COURSE</text><text x="1182" y="538" fill="#202343" font-family="Arial, sans-serif" font-size="17" font-weight="600">Accessible interface design</text><text x="1182" y="590" fill="#737894" font-family="Arial, sans-serif" font-size="14">ENROLLMENT</text><text x="1182" y="618" fill="#202343" font-family="Arial, sans-serif" font-size="17" font-weight="600">Active</text><text x="1182" y="670" fill="#737894" font-family="Arial, sans-serif" font-size="14">PROGRESS</text><text x="1182" y="698" fill="#202343" font-family="Arial, sans-serif" font-size="17" font-weight="600">75% complete</text><text x="1182" y="750" fill="#737894" font-family="Arial, sans-serif" font-size="14">SOURCE</text><text x="1182" y="778" fill="#15766d" font-family="Arial, sans-serif" font-size="17" font-weight="600">Frappe LMS · REST API</text>
</svg>
