<svg xmlns="http://www.w3.org/2000/svg" width="1600" height="900" viewBox="0 0 1600 900" role="img" aria-labelledby="title desc">
  <title id="title">Personal Development Workspace dashboard</title>
  <desc id="desc">A dashboard showing a profile, skill profile, learning progress, and next review.</desc>
  <defs>
    <linearGradient id="bg" x1="0" y1="0" x2="1" y2="1"><stop stop-color="#f3f1ff"/><stop offset="1" stop-color="#eef8f7"/></linearGradient>
    <filter id="shadow" x="-20%" y="-20%" width="140%" height="140%"><feDropShadow dx="0" dy="10" stdDeviation="14" flood-color="#2f2a5c" flood-opacity=".12"/></filter>
  </defs>
  <rect width="1600" height="900" rx="24" fill="url(#bg)"/>
  <rect width="260" height="900" rx="24" fill="#202343"/>
  <text x="48" y="62" fill="#fff" font-family="Arial, sans-serif" font-size="24" font-weight="700">PD Workspace</text>
  <circle cx="32" cy="131" r="5" fill="#65d5c4"/><text x="54" y="139" fill="#fff" font-family="Arial, sans-serif" font-size="17">Home</text>
  <text x="54" y="199" fill="#aeb4d5" font-family="Arial, sans-serif" font-size="17">People</text>
  <rect x="22" y="222" width="216" height="50" rx="12" fill="#3b3b78"/><circle cx="32" cy="247" r="5" fill="#65d5c4"/><text x="54" y="255" fill="#fff" font-family="Arial, sans-serif" font-size="17" font-weight="600">Skill profiles</text>
  <text x="54" y="315" fill="#aeb4d5" font-family="Arial, sans-serif" font-size="17">Learning</text>
  <text x="54" y="375" fill="#aeb4d5" font-family="Arial, sans-serif" font-size="17">Reports</text>
  <text x="54" y="435" fill="#aeb4d5" font-family="Arial, sans-serif" font-size="17">Settings</text>
  <line x1="32" y1="790" x2="228" y2="790" stroke="#41456b"/><text x="54" y="833" fill="#aeb4d5" font-family="Arial, sans-serif" font-size="15">Signed in as Alex Morgan</text>
  <text x="320" y="80" fill="#202343" font-family="Arial, sans-serif" font-size="32" font-weight="700">My development workspace</text>
  <text x="320" y="113" fill="#737894" font-family="Arial, sans-serif" font-size="17">A shared view of skills, learning, and development actions.</text>
  <rect x="320" y="152" width="1220" height="142" rx="18" fill="#fff" filter="url(#shadow)"/>
  <circle cx="394" cy="223" r="42" fill="#dbe9ee"/><circle cx="394" cy="212" r="14" fill="#5e7794"/><path d="M366 254c5-25 51-25 56 0" fill="#5e7794"/>
  <text x="462" y="208" fill="#202343" font-family="Arial, sans-serif" font-size="23" font-weight="700">Alex Morgan</text><text x="462" y="240" fill="#737894" font-family="Arial, sans-serif" font-size="17">Product Designer · Product team</text>
  <rect x="1212" y="199" width="250" height="49" rx="12" fill="#e8faf6"/><text x="1260" y="230" fill="#15766d" font-family="Arial, sans-serif" font-size="16" font-weight="700">Profile up to date</text>
  <g filter="url(#shadow)"><rect x="320" y="330" width="380" height="176" rx="18" fill="#fff"/><rect x="740" y="330" width="380" height="176" rx="18" fill="#fff"/><rect x="1160" y="330" width="380" height="176" rx="18" fill="#fff"/></g>
  <text x="352" y="372" fill="#737894" font-family="Arial, sans-serif" font-size="16">SKILL PROFILE</text><text x="352" y="420" fill="#202343" font-family="Arial, sans-serif" font-size="37" font-weight="700">12</text><text x="410" y="420" fill="#737894" font-family="Arial, sans-serif" font-size="17">skills reviewed</text><text x="352" y="463" fill="#15766d" font-family="Arial, sans-serif" font-size="16" font-weight="600">3 ready for next level</text>
  <text x="772" y="372" fill="#737894" font-family="Arial, sans-serif" font-size="16">LEARNING PROGRESS</text><text x="772" y="420" fill="#202343" font-family="Arial, sans-serif" font-size="37" font-weight="700">68%</text><rect x="772" y="449" width="304" height="12" rx="6" fill="#e5e8f1"/><rect x="772" y="449" width="207" height="12" rx="6" fill="#51b9aa"/>
  <text x="1192" y="372" fill="#737894" font-family="Arial, sans-serif" font-size="16">NEXT REVIEW</text><text x="1192" y="420" fill="#202343" font-family="Arial, sans-serif" font-size="28" font-weight="700">18 October</text><text x="1192" y="462" fill="#737894" font-family="Arial, sans-serif" font-size="16">with Jordan Lee</text>
  <rect x="320" y="542" width="780" height="278" rx="18" fill="#fff" filter="url(#shadow)"/><text x="352" y="590" fill="#202343" font-family="Arial, sans-serif" font-size="21" font-weight="700">Skill profile</text><text x="352" y="620" fill="#737894" font-family="Arial, sans-serif" font-size="15">Current level against the role profile</text>
  <text x="352" y="674" fill="#303657" font-family="Arial, sans-serif" font-size="16">User research</text><rect x="570" y="661" width="450" height="14" rx="7" fill="#e5e8f1"/><rect x="570" y="661" width="360" height="14" rx="7" fill="#6874d8"/><text x="1045" y="674" fill="#737894" font-family="Arial, sans-serif" font-size="15">Strong</text>
  <text x="352" y="724" fill="#303657" font-family="Arial, sans-serif" font-size="16">Facilitation</text><rect x="570" y="711" width="450" height="14" rx="7" fill="#e5e8f1"/><rect x="570" y="711" width="293" height="14" rx="7" fill="#6874d8"/><text x="1045" y="724" fill="#737894" font-family="Arial, sans-serif" font-size="15">Developing</text>
  <text x="352" y="774" fill="#303657" font-family="Arial, sans-serif" font-size="16">Accessibility</text><rect x="570" y="761" width="450" height="14" rx="7" fill="#e5e8f1"/><rect x="570" y="761" width="405" height="14" rx="7" fill="#51b9aa"/><text x="1045" y="774" fill="#737894" font-family="Arial, sans-serif" font-size="15">Strong</text>
  <rect x="1140" y="542" width="400" height="278" rx="18" fill="#fff" filter="url(#shadow)"/><text x="1172" y="590" fill="#202343" font-family="Arial, sans-serif" font-size="21" font-weight="700">Recent activity</text><circle cx="1185" cy="645" r="7" fill="#51b9aa"/><text x="1208" y="650" fill="#303657" font-family="Arial, sans-serif" font-size="16">Learning record synchronized</text><text x="1208" y="674" fill="#737894" font-family="Arial, sans-serif" font-size="14">Today · Frappe LMS</text><circle cx="1185" cy="727" r="7" fill="#6874d8"/><text x="1208" y="732" fill="#303657" font-family="Arial, sans-serif" font-size="16">Skill profile updated</text><text x="1208" y="756" fill="#737894" font-family="Arial, sans-serif" font-size="14">Yesterday · Manager review</text>
</svg>
