<svg xmlns="http://www.w3.org/2000/svg" viewBox="0 0 1200 630" role="img" aria-label="Abstract precious metals and web infrastructure still life">
  <defs>
    <linearGradient id="bg" x1="0" y1="0" x2="1" y2="1">
      <stop offset="0" stop-color="#121a26"/>
      <stop offset="1" stop-color="#28394d"/>
    </linearGradient>
    <linearGradient id="gold" x1="0" y1="0" x2="1" y2="1">
      <stop offset="0" stop-color="#fff0a5"/>
      <stop offset=".42" stop-color="#d9a72d"/>
      <stop offset="1" stop-color="#805512"/>
    </linearGradient>
    <linearGradient id="screen" x1="0" y1="0" x2="0" y2="1">
      <stop offset="0" stop-color="#b6c9d4"/>
      <stop offset="1" stop-color="#526b7d"/>
    </linearGradient>
    <filter id="shadow" x="-.3" y="-.3" width="1.6" height="1.7">
      <feGaussianBlur stdDeviation="18"/>
    </filter>
  </defs>
  <rect width="1200" height="630" fill="url(#bg)"/>
  <g opacity=".14" stroke="#d9e5ec" stroke-width="1">
    <path d="M0 105h1200M0 210h1200M0 315h1200M0 420h1200M0 525h1200"/>
    <path d="M120 0v630M240 0v630M360 0v630M480 0v630M600 0v630M720 0v630M840 0v630M960 0v630M1080 0v630"/>
  </g>
  <ellipse cx="603" cy="530" rx="455" ry="55" fill="#000" opacity=".5" filter="url(#shadow)"/>
  <g transform="translate(170 138) rotate(-7 260 190)">
    <rect x="0" y="0" width="520" height="330" rx="20" fill="#111722" stroke="#9eabb7" stroke-width="4"/>
    <rect x="22" y="22" width="476" height="274" rx="10" fill="url(#screen)"/>
    <g opacity=".55" fill="none" stroke="#eef4f5" stroke-width="8" stroke-linecap="round">
      <path d="M65 91h180M65 125h280M65 159h130"/>
      <path d="M65 221c48-65 75 44 124-23 44-60 70 24 115-28 39-45 59-3 105-42"/>
    </g>
    <path d="M-42 330h604l-45 42H3z" fill="#9ba9b4" stroke="#d5dde2" stroke-width="3"/>
  </g>
  <g transform="translate(650 220) rotate(11)">
    <path d="M0 58 278 0l72 150-279 61z" fill="url(#gold)" stroke="#ffe58a" stroke-width="4"/>
    <path d="m36 77 215-45 35 72-216 47z" fill="none" stroke="#fff0a5" stroke-width="3" opacity=".6"/>
    <path d="m82 112 138-29" stroke="#fff2b7" stroke-width="3" opacity=".65"/>
  </g>
  <g transform="translate(785 365)">
    <ellipse cx="0" cy="45" rx="68" ry="22" fill="#805512" opacity=".7"/>
    <ellipse cx="0" cy="25" rx="68" ry="22" fill="url(#gold)" stroke="#ffe58a" stroke-width="4"/>
    <ellipse cx="0" cy="25" rx="46" ry="13" fill="none" stroke="#fff0a5" stroke-width="3" opacity=".7"/>
  </g>
  <circle cx="1010" cy="100" r="100" fill="none" stroke="#d9a72d" stroke-width="2" opacity=".35"/>
  <circle cx="1010" cy="100" r="74" fill="none" stroke="#d9a72d" stroke-width="2" opacity=".2"/>
</svg>
