<svg width="291" height="58" viewBox="0 0 291 58" fill="none" xmlns="http://www.w3.org/2000/svg">
<path d="M45.8361 17.104C46.9881 17.104 48.1521 17.212 49.3281 17.428C50.5041 17.644 51.4401 17.956 52.1361 18.364C52.3521 18.46 52.4841 18.568 52.5321 18.688C52.6041 18.784 52.6521 18.964 52.6761 19.228L53.0721 23.26C53.0721 23.332 53.0121 23.38 52.8921 23.404C52.7721 23.404 52.7001 23.368 52.6761 23.296C52.1481 21.448 51.1641 20.092 49.7241 19.228C48.3081 18.34 46.5441 17.896 44.4321 17.896C42.6081 17.896 41.0121 18.304 39.6441 19.12C38.2761 19.912 37.2201 21.04 36.4761 22.504C35.7321 23.968 35.3601 25.66 35.3601 27.58C35.3601 29.812 35.8161 31.876 36.7281 33.772C37.6641 35.668 38.9121 37.168 40.4721 38.272C42.0561 39.376 43.7601 39.928 45.5841 39.928C47.3121 39.928 48.8121 39.46 50.0841 38.524C51.3561 37.564 52.3281 36.1 53.0001 34.132C53.0001 34.06 53.0481 34.024 53.1441 34.024C53.2161 34.024 53.2761 34.036 53.3241 34.06C53.3961 34.084 53.4321 34.12 53.4321 34.168L52.9281 38.236C52.8801 38.524 52.8201 38.716 52.7481 38.812C52.7001 38.884 52.5681 38.968 52.3521 39.064C50.1921 39.976 47.9121 40.432 45.5121 40.432C42.6321 40.432 40.2201 39.856 38.2761 38.704C36.3561 37.528 34.9401 36.04 34.0281 34.24C33.1161 32.44 32.6601 30.544 32.6601 28.552C32.6601 26.344 33.2721 24.364 34.4961 22.612C35.7201 20.86 37.3401 19.504 39.3561 18.544C41.3721 17.584 43.5321 17.104 45.8361 17.104ZM72.2581 23.152C72.3061 23.152 72.3301 23.224 72.3301 23.368C72.3301 23.512 72.3061 23.584 72.2581 23.584C71.5621 23.584 70.9621 23.776 70.4581 24.16C69.9781 24.544 69.5461 25.228 69.1621 26.212L63.7261 39.964C63.1981 41.38 62.5141 42.64 61.6741 43.744C60.8341 44.848 59.9461 45.628 59.0101 46.084C58.9381 46.132 58.7941 46.072 58.5781 45.904C58.3621 45.736 58.1821 45.532 58.0381 45.292C57.8461 44.908 57.7501 44.548 57.7501 44.212C57.7501 43.996 57.7861 43.888 57.8581 43.888C59.1061 43.672 60.1501 43.288 60.9901 42.736C61.8541 42.184 62.5381 41.32 63.0421 40.144L56.3821 26.14C55.9021 25.132 55.4821 24.46 55.1221 24.124C54.7621 23.764 54.2701 23.584 53.6461 23.584C53.5741 23.584 53.5381 23.512 53.5381 23.368C53.5381 23.224 53.5741 23.152 53.6461 23.152L55.0141 23.188C55.6861 23.236 56.2141 23.26 56.5981 23.26C57.1981 23.26 57.9301 23.236 58.7941 23.188L60.2341 23.152C60.2821 23.152 60.3061 23.224 60.3061 23.368C60.3061 23.512 60.2821 23.584 60.2341 23.584C58.9861 23.584 58.3621 23.956 58.3621 24.7C58.3621 25.036 58.4581 25.396 58.6501 25.78L64.1941 37.192L68.4061 25.996C68.5741 25.492 68.6581 25.132 68.6581 24.916C68.6581 24.028 67.8541 23.584 66.2461 23.584C66.1741 23.584 66.1381 23.512 66.1381 23.368C66.1381 23.224 66.1741 23.152 66.2461 23.152L67.5421 23.188C68.2621 23.236 68.9101 23.26 69.4861 23.26C69.8701 23.26 70.3501 23.236 70.9261 23.188L72.2581 23.152ZM76.9648 36.94C76.9648 37.708 77.0488 38.272 77.2168 38.632C77.3848 38.968 77.7088 39.208 78.1888 39.352C78.6928 39.496 79.4728 39.568 80.5288 39.568C80.6008 39.568 80.6368 39.64 80.6368 39.784C80.6368 39.928 80.6008 40 80.5288 40C79.6648 40 79.0048 39.988 78.5488 39.964L75.8848 39.928L73.7608 39.964C73.3528 39.988 72.8008 40 72.1048 40C72.0568 40 72.0328 39.928 72.0328 39.784C72.0328 39.64 72.0568 39.568 72.1048 39.568C72.8968 39.568 73.4728 39.508 73.8328 39.388C74.1928 39.268 74.4328 39.04 74.5528 38.704C74.6968 38.344 74.7688 37.804 74.7688 37.084V26.068C74.7688 25.348 74.6968 24.82 74.5528 24.484C74.4328 24.148 74.1808 23.92 73.7968 23.8C73.4368 23.656 72.8728 23.584 72.1048 23.584C72.0568 23.584 72.0328 23.512 72.0328 23.368C72.0328 23.224 72.0568 23.152 72.1048 23.152L73.7248 23.188C74.6368 23.236 75.3448 23.26 75.8488 23.26C76.2568 23.26 76.6408 23.248 77.0008 23.224C77.3848 23.2 77.7088 23.176 77.9728 23.152C78.7168 23.08 79.4128 23.044 80.0608 23.044C84.0208 23.044 86.0008 24.508 86.0008 27.436C86.0008 28.588 85.7008 29.56 85.1008 30.352C84.5248 31.12 83.7808 31.696 82.8688 32.08C81.9808 32.464 81.0568 32.656 80.0968 32.656C79.4488 32.656 78.9208 32.608 78.5128 32.512C78.4648 32.512 78.4408 32.452 78.4408 32.332C78.4408 32.14 78.5008 32.044 78.6208 32.044C78.9808 32.116 79.3528 32.152 79.7368 32.152C80.7928 32.152 81.6808 31.816 82.4008 31.144C83.1448 30.448 83.5168 29.452 83.5168 28.156C83.5168 26.644 83.1208 25.504 82.3288 24.736C81.5608 23.944 80.5168 23.548 79.1968 23.548C78.5968 23.548 78.1408 23.596 77.8288 23.692C77.5408 23.788 77.3248 24.016 77.1808 24.376C77.0368 24.736 76.9648 25.324 76.9648 26.14V36.94ZM107.346 39.568C107.418 39.568 107.454 39.64 107.454 39.784C107.454 39.928 107.418 40 107.346 40C106.674 40 106.134 39.988 105.726 39.964L103.566 39.928L101.37 39.964C100.986 39.988 100.458 40 99.7857 40C99.7137 40 99.6777 39.928 99.6777 39.784C99.6777 39.64 99.7137 39.568 99.7857 39.568C100.578 39.568 101.154 39.508 101.514 39.388C101.874 39.268 102.114 39.04 102.234 38.704C102.378 38.344 102.45 37.804 102.45 37.084V31.828H92.3697V37.084C92.3697 37.828 92.4297 38.368 92.5497 38.704C92.6937 39.04 92.9457 39.268 93.3057 39.388C93.6657 39.508 94.2537 39.568 95.0697 39.568C95.1177 39.568 95.1417 39.64 95.1417 39.784C95.1417 39.928 95.1177 40 95.0697 40C94.3977 40 93.8697 39.988 93.4857 39.964L91.2537 39.928L89.1297 39.964C88.7217 39.988 88.1697 40 87.4737 40C87.4257 40 87.4017 39.928 87.4017 39.784C87.4017 39.64 87.4257 39.568 87.4737 39.568C88.2657 39.568 88.8417 39.508 89.2017 39.388C89.5857 39.268 89.8497 39.04 89.9937 38.704C90.1377 38.344 90.2097 37.804 90.2097 37.084V26.068C90.2097 25.348 90.1377 24.82 89.9937 24.484C89.8737 24.148 89.6217 23.92 89.2377 23.8C88.8777 23.656 88.3017 23.584 87.5097 23.584C87.4617 23.584 87.4377 23.512 87.4377 23.368C87.4377 23.224 87.4617 23.152 87.5097 23.152L89.1297 23.188C90.0417 23.236 90.7497 23.26 91.2537 23.26C91.8537 23.26 92.6097 23.236 93.5217 23.188L95.0697 23.152C95.1177 23.152 95.1417 23.224 95.1417 23.368C95.1417 23.512 95.1177 23.584 95.0697 23.584C94.3017 23.584 93.7257 23.656 93.3417 23.8C92.9577 23.944 92.6937 24.196 92.5497 24.556C92.4297 24.892 92.3697 25.42 92.3697 26.14V31.18H102.45V26.14C102.45 25.42 102.378 24.892 102.234 24.556C102.114 24.196 101.862 23.944 101.478 23.8C101.118 23.656 100.554 23.584 99.7857 23.584C99.7137 23.584 99.6777 23.512 99.6777 23.368C99.6777 23.224 99.7137 23.152 99.7857 23.152L101.37 23.188C102.234 23.236 102.966 23.26 103.566 23.26C104.094 23.26 104.814 23.236 105.726 23.188L107.346 23.152C107.418 23.152 107.454 23.224 107.454 23.368C107.454 23.512 107.418 23.584 107.346 23.584C106.554 23.584 105.966 23.656 105.582 23.8C105.222 23.92 104.97 24.148 104.826 24.484C104.682 24.82 104.61 25.348 104.61 26.068V37.084C104.61 37.804 104.682 38.344 104.826 38.704C104.97 39.04 105.222 39.268 105.582 39.388C105.966 39.508 106.554 39.568 107.346 39.568ZM122.036 38.056C122.108 38.056 122.168 38.104 122.216 38.2C122.288 38.272 122.3 38.344 122.252 38.416C120.548 39.76 118.688 40.432 116.672 40.432C114.968 40.432 113.504 40.036 112.28 39.244C111.08 38.428 110.168 37.372 109.544 36.076C108.944 34.78 108.644 33.388 108.644 31.9C108.644 30.244 109.04 28.72 109.832 27.328C110.624 25.912 111.68 24.796 113 23.98C114.32 23.164 115.76 22.756 117.32 22.756C118.928 22.756 120.14 23.2 120.956 24.088C121.772 24.976 122.18 26.176 122.18 27.688C122.18 27.928 122.144 28.108 122.072 28.228C122.024 28.324 121.916 28.372 121.748 28.372L111.272 28.408C111.128 29.08 111.056 29.824 111.056 30.64C111.056 32.272 111.332 33.748 111.884 35.068C112.436 36.364 113.228 37.384 114.26 38.128C115.316 38.872 116.552 39.244 117.968 39.244C119.576 39.244 120.92 38.848 122 38.056H122.036ZM116.204 23.476C115.052 23.476 114.044 23.872 113.18 24.664C112.34 25.432 111.74 26.5 111.38 27.868L119.66 27.724C119.684 26.356 119.396 25.312 118.796 24.592C118.22 23.848 117.356 23.476 116.204 23.476ZM141.457 39.568C141.505 39.568 141.529 39.64 141.529 39.784C141.529 39.928 141.505 40 141.457 40H137.245C136.813 40 136.045 39.28 134.941 37.84C133.861 36.4 132.553 34.408 131.017 31.864C130.561 31.96 130.045 32.008 129.469 32.008C128.869 32.008 128.413 31.984 128.101 31.936V37.084C128.101 37.828 128.161 38.368 128.281 38.704C128.401 39.04 128.641 39.268 129.001 39.388C129.361 39.508 129.949 39.568 130.765 39.568C130.813 39.568 130.837 39.64 130.837 39.784C130.837 39.928 130.813 40 130.765 40C130.093 40 129.577 39.988 129.217 39.964L126.949 39.928L124.825 39.964C124.417 39.988 123.865 40 123.169 40C123.121 40 123.097 39.928 123.097 39.784C123.097 39.64 123.121 39.568 123.169 39.568C123.961 39.568 124.537 39.508 124.897 39.388C125.281 39.268 125.545 39.04 125.689 38.704C125.833 38.344 125.905 37.804 125.905 37.084V26.068C125.905 25.348 125.833 24.82 125.689 24.484C125.569 24.148 125.317 23.92 124.933 23.8C124.573 23.656 123.997 23.584 123.205 23.584C123.157 23.584 123.133 23.512 123.133 23.368C123.133 23.224 123.157 23.152 123.205 23.152L124.861 23.188C125.725 23.236 126.421 23.26 126.949 23.26C127.381 23.26 127.777 23.248 128.137 23.224C128.521 23.2 128.845 23.176 129.109 23.152C129.853 23.08 130.561 23.044 131.233 23.044C132.793 23.044 133.981 23.344 134.797 23.944C135.613 24.544 136.021 25.408 136.021 26.536C136.021 27.496 135.745 28.384 135.193 29.2C134.641 30.016 133.897 30.676 132.961 31.18C134.305 33.388 135.433 35.092 136.345 36.292C137.281 37.468 138.133 38.308 138.901 38.812C139.693 39.316 140.545 39.568 141.457 39.568ZM128.101 31.288C128.533 31.36 129.073 31.396 129.721 31.396C131.209 31.396 132.241 31.072 132.817 30.424C133.417 29.752 133.717 28.78 133.717 27.508C133.717 24.868 132.577 23.548 130.297 23.548C129.385 23.548 128.785 23.74 128.497 24.124C128.233 24.508 128.101 25.18 128.101 26.14V31.288Z" fill="#18191F"/>
<path d="M168.824 43.424C168.888 43.424 168.92 43.52 168.92 43.712C168.92 43.904 168.888 44 168.824 44C167.992 44 167.336 43.984 166.856 43.952L164.216 43.904L160.52 43.952C159.944 43.984 159.16 44 158.168 44C158.104 44 158.072 43.904 158.072 43.712C158.072 43.52 158.104 43.424 158.168 43.424C159.032 43.424 159.656 43.36 160.04 43.232C160.424 43.104 160.616 42.896 160.616 42.608C160.616 42.32 160.472 41.968 160.184 41.552L152.888 30.512L146.792 39.104C146.024 40.192 145.64 41.072 145.64 41.744C145.64 42.864 146.584 43.424 148.472 43.424C148.568 43.424 148.616 43.52 148.616 43.712C148.616 43.904 148.568 44 148.472 44C147.512 44 146.776 43.984 146.264 43.952L142.952 43.904L140.936 43.952C140.584 43.984 139.992 44 139.16 44C139.064 44 139.016 43.904 139.016 43.712C139.016 43.52 139.064 43.424 139.16 43.424C141.368 43.424 143.544 41.968 145.688 39.056L152.456 29.792L144.728 18.08C143.896 16.8 143.064 15.904 142.232 15.392C141.432 14.848 140.472 14.576 139.352 14.576C139.288 14.576 139.256 14.48 139.256 14.288C139.256 14.096 139.288 14 139.352 14L141.176 14.048C142.008 14.112 142.616 14.144 143 14.144C144.088 14.144 145.4 14.112 146.936 14.048L149.432 14C149.528 14 149.576 14.096 149.576 14.288C149.576 14.48 149.528 14.576 149.432 14.576C148.6 14.576 147.976 14.64 147.56 14.768C147.176 14.896 146.984 15.12 146.984 15.44C146.984 15.696 147.128 16.048 147.416 16.496L154.52 27.2L160.136 19.232C161 18.016 161.432 17.024 161.432 16.256C161.432 15.136 160.536 14.576 158.744 14.576C158.648 14.576 158.6 14.48 158.6 14.288C158.6 14.096 158.648 14 158.744 14L160.904 14.048C162.12 14.112 163.224 14.144 164.216 14.144C164.792 14.144 165.464 14.112 166.232 14.048L168.008 14C168.104 14 168.152 14.096 168.152 14.288C168.152 14.48 168.104 14.576 168.008 14.576C166.952 14.576 165.848 14.976 164.696 15.776C163.544 16.576 162.392 17.76 161.24 19.328L154.952 27.92L162.968 40.016C163.8 41.264 164.648 42.144 165.512 42.656C166.408 43.168 167.512 43.424 168.824 43.424Z" fill="#00ACE8"/>
</svg>
